# Blender 3.6.0
# www.blender.org
mtllib  dice_two.mtl
o Dodecahedron
v 0.500000 0.000000 1.309017
v 0.809017 0.809017 0.809017
v -0.500000 0.000000 1.309017
v 0.000000 1.309017 0.500000
v -0.809017 0.809017 0.809017
v -0.809017 -0.809017 0.809017
v 0.000000 -1.309017 0.500000
v 0.809017 -0.809017 0.809017
v 1.309017 -0.500000 0.000000
v 1.309017 0.500000 0.000000
v 0.000000 -1.309017 -0.500000
v 0.809017 -0.809017 -0.809017
v 0.000000 1.309017 -0.500000
v 0.809017 0.809017 -0.809017
v -0.500000 0.000000 -1.309017
v 0.500000 0.000000 -1.309017
v -0.809017 -0.809017 -0.809017
v -1.309017 -0.500000 0.000000
v -1.309017 0.500000 0.000000
v -0.809017 0.809017 -0.809017
vn -0.0000 0.5257 0.8507
vn -0.0000 -0.5257 0.8507
vn 0.8507 -0.0000 0.5257
vn 0.5257 -0.8507 -0.0000
vn 0.5257 0.8507 -0.0000
vn -0.0000 -0.5257 -0.8507
vn -0.8507 -0.0000 -0.5257
vn -0.5257 -0.8507 -0.0000
vn -0.8507 -0.0000 0.5257
vn 0.8507 -0.0000 -0.5257
vn -0.0000 0.5257 -0.8507
vn -0.5257 0.8507 -0.0000
vt 0.654441 0.600344
vt 0.560726 0.668622
vt 0.620958 0.489376
vt 0.467596 0.598493
vt 0.504672 0.488003
vt 0.707222 0.482381
vt 0.824722 0.483025
vt 0.858564 0.592635
vt 0.764167 0.660848
vt 0.670472 0.591480
vt 0.753685 0.671003
vt 0.718611 0.782841
vt 0.660791 0.602328
vt 0.602114 0.782047
vt 0.567076 0.671003
vt 0.725358 0.782841
vt 0.763607 0.673384
vt 0.878564 0.673498
vt 0.913175 0.785334
vt 0.818684 0.853093
vt 0.394179 0.773960
vt 0.438229 0.665561
vt 0.554377 0.672193
vt 0.583859 0.786016
vt 0.483786 0.847346
vt 0.374335 0.292367
vt 0.472732 0.231148
vt 0.561278 0.305189
vt 0.517624 0.412297
vt 0.402046 0.404210
vt 0.296611 0.475794
vt 0.203556 0.406762
vt 0.354015 0.296932
vt 0.389324 0.406552
vt 0.238875 0.296529
vt 0.488634 0.480355
vt 0.450434 0.590367
vt 0.335468 0.588429
vt 0.302111 0.478044
vt 0.396416 0.411405
vt 0.133056 0.595979
vt 0.098750 0.485177
vt 0.192616 0.418285
vt 0.285361 0.486544
vt 0.248653 0.596619
vt 0.751616 0.901112
vt 0.656752 0.967031
vt 0.602114 0.788794
vt 0.717817 0.790381
vt 0.563950 0.898143
vt 0.205452 0.177008
vt 0.299898 0.110044
vt 0.391982 0.179351
vt 0.354200 0.289579
vt 0.238282 0.287344
vt 0.192926 0.405573
vt 0.077472 0.403862
vt 0.044370 0.292362
vt 0.138694 0.225703
vt 0.230495 0.296316
s 0
usemtl Material.001
f 1/1/1 2/2/1 3/3/1
f 2/2/1 4/4/1 3/3/1
f 4/4/1 5/5/1 3/3/1
f 3/6/2 6/7/2 7/8/2
f 7/8/2 8/9/2 1/10/2
f 1/10/2 3/6/2 7/8/2
f 8/11/3 9/12/3 1/13/3
f 9/12/3 10/14/3 1/13/3
f 10/14/3 2/15/3 1/13/3
f 9/16/4 8/17/4 7/18/4
f 7/18/4 11/19/4 9/16/4
f 11/19/4 12/20/4 9/16/4
f 13/21/5 4/22/5 2/23/5
f 2/23/5 10/24/5 13/21/5
f 10/24/5 14/25/5 13/21/5
f 15/26/6 16/27/6 12/28/6
f 12/28/6 11/29/6 15/26/6
f 11/29/6 17/30/6 15/26/6
f 18/31/7 19/32/7 15/33/7
f 18/31/7 15/33/7 17/34/7
f 19/32/7 20/35/7 15/33/7
f 11/36/8 7/37/8 6/38/8
f 6/38/8 18/39/8 11/36/8
f 18/39/8 17/40/8 11/36/8
f 3/41/9 5/42/9 19/43/9
f 19/43/9 18/44/9 6/45/9
f 6/45/9 3/41/9 19/43/9
f 12/46/10 16/47/10 10/48/10
f 12/46/10 10/48/10 9/49/10
f 16/47/10 14/50/10 10/48/10
f 13/51/11 14/52/11 16/53/11
f 16/53/11 15/54/11 13/51/11
f 15/54/11 20/55/11 13/51/11
f 19/56/12 5/57/12 4/58/12
f 4/58/12 13/59/12 19/56/12
f 13/59/12 20/60/12 19/56/12
